<svg xmlns="http://www.w3.org/2000/svg" viewBox="0 0 100 100"><defs><style>.cls-1{fill:#0064f4;}.cls-1,.cls-3{stroke:#231f20;stroke-miterlimit:10;stroke-width:1.5px;}.cls-2{fill:#0099f5;}.cls-3{fill:none;}</style></defs><g id="Layer_2" data-name="Layer 2"><path class="cls-1" d="M56.75,29.87a2.17,2.17,0,0,1,.66-1.59c.44-.45-1.29-.67-.68-.67h3.75a2.15,2.15,0,0,1,1.58.67,2.18,2.18,0,0,1,.66,1.59V63.4A8.47,8.47,0,0,1,62,66.88a9.32,9.32,0,0,1-4.77,4.78,8.31,8.31,0,0,1-3.47.73H49.24a8.47,8.47,0,0,1-3.47-.73A9.47,9.47,0,0,1,41,66.83a8.55,8.55,0,0,1-.72-3.49V53.07c0-.81-.57-2.41,0-3h3a2.79,2.79,0,0,1,2.09.9,2.93,2.93,0,0,1,.87,2.11v9.11a4.09,4.09,0,0,0,1.25,3,4,4,0,0,0,2.93,1.24h2.14a4,4,0,0,0,2.93-1.24,4.08,4.08,0,0,0,1.25-3V29.87Z"/><path class="cls-2" d="M53.75,29.87a2.17,2.17,0,0,1,.66-1.59A2.13,2.13,0,0,1,56,27.61h1.49a2.15,2.15,0,0,1,1.58.67,2.18,2.18,0,0,1,.66,1.59V63.4A8.47,8.47,0,0,1,59,66.88a9.32,9.32,0,0,1-4.77,4.78,8.31,8.31,0,0,1-3.47.73H46.24a8.47,8.47,0,0,1-3.47-.73A9.47,9.47,0,0,1,38,66.83a8.55,8.55,0,0,1-.72-3.49V53.07A2.93,2.93,0,0,1,38.15,51a2.85,2.85,0,0,1,2.14-.9,2.79,2.79,0,0,1,2.09.9,2.93,2.93,0,0,1,.87,2.11v9.11a4.09,4.09,0,0,0,1.25,3,4,4,0,0,0,2.93,1.24h2.14a4,4,0,0,0,2.93-1.24,4.08,4.08,0,0,0,1.25-3V29.87Z"/><path class="cls-3" d="M53.75,32.84v-3a2.17,2.17,0,0,1,.66-1.59A2.13,2.13,0,0,1,56,27.61h1.49a2.15,2.15,0,0,1,1.58.67,2.18,2.18,0,0,1,.66,1.59V63.4A8.47,8.47,0,0,1,59,66.88a9.32,9.32,0,0,1-4.77,4.78,8.31,8.31,0,0,1-3.47.73H46.24a8.47,8.47,0,0,1-3.47-.73A9.47,9.47,0,0,1,38,66.83a8.55,8.55,0,0,1-.72-3.49m0-3.63V53.07A2.93,2.93,0,0,1,38.15,51a2.85,2.85,0,0,1,2.14-.9,2.79,2.79,0,0,1,2.09.9,2.93,2.93,0,0,1,.87,2.11v9.11a4.09,4.09,0,0,0,1.25,3,4,4,0,0,0,2.93,1.24h2.14a4,4,0,0,0,2.93-1.24,4.08,4.08,0,0,0,1.25-3V35.28"/></g></svg>